<svg id="visual" viewBox="0 0 2000 2000" width="2000" height="2000" xmlns="http://www.w3.org/2000/svg" xmlns:xlink="http://www.w3.org/1999/xlink" version="1.1"><rect x="0" y="0" width="2000" height="2000" fill="#0f172a"></rect><path d="M0 1246L47.7 1128.8C95.3 1011.7 190.7 777.3 285.8 662.2C381 547 476 551 571.2 654.3C666.3 757.7 761.7 960.3 857 1050C952.3 1139.7 1047.7 1116.3 1143 1082.7C1238.3 1049 1333.7 1005 1428.8 924.3C1524 843.7 1619 726.3 1714.2 681C1809.3 635.7 1904.7 662.3 1952.3 675.7L2000 689L2000 2001L1952.3 2001C1904.7 2001 1809.3 2001 1714.2 2001C1619 2001 1524 2001 1428.8 2001C1333.7 2001 1238.3 2001 1143 2001C1047.7 2001 952.3 2001 857 2001C761.7 2001 666.3 2001 571.2 2001C476 2001 381 2001 285.8 2001C190.7 2001 95.3 2001 47.7 2001L0 2001Z" fill="#0066FF" stroke-linecap="round" stroke-linejoin="miter"></path></svg>