<svg id="visual" viewBox="0 0 2000 600" width="2000" height="600" xmlns="http://www.w3.org/2000/svg" xmlns:xlink="http://www.w3.org/1999/xlink" version="1.1"><rect x="0" y="0" width="2000" height="600" fill="#0f172a"></rect><path d="M0 468L47.7 458.3C95.3 448.7 190.7 429.3 285.8 428.3C381 427.3 476 444.7 571.2 458.5C666.3 472.3 761.7 482.7 857 489C952.3 495.3 1047.7 497.7 1143 494.8C1238.3 492 1333.7 484 1428.8 479C1524 474 1619 472 1714.2 470C1809.3 468 1904.7 466 1952.3 465L2000 464L2000 601L1952.3 601C1904.7 601 1809.3 601 1714.2 601C1619 601 1524 601 1428.8 601C1333.7 601 1238.3 601 1143 601C1047.7 601 952.3 601 857 601C761.7 601 666.3 601 571.2 601C476 601 381 601 285.8 601C190.7 601 95.3 601 47.7 601L0 601Z" fill="#0066FF" stroke-linecap="round" stroke-linejoin="miter"></path></svg>