<svg id="visual" viewBox="0 0 2000 600" width="2000" height="600" xmlns="http://www.w3.org/2000/svg" xmlns:xlink="http://www.w3.org/1999/xlink" version="1.1"><rect x="0" y="0" width="2000" height="600" fill="#0f172a"></rect><path d="M0 254L47.7 284.3C95.3 314.7 190.7 375.3 285.8 359.7C381 344 476 252 571.2 227.2C666.3 202.3 761.7 244.7 857 271.8C952.3 299 1047.7 311 1143 306.2C1238.3 301.3 1333.7 279.7 1428.8 278C1524 276.3 1619 294.7 1714.2 285.7C1809.3 276.7 1904.7 240.3 1952.3 222.2L2000 204L2000 601L1952.3 601C1904.7 601 1809.3 601 1714.2 601C1619 601 1524 601 1428.8 601C1333.7 601 1238.3 601 1143 601C1047.7 601 952.3 601 857 601C761.7 601 666.3 601 571.2 601C476 601 381 601 285.8 601C190.7 601 95.3 601 47.7 601L0 601Z" fill="#0066FF" stroke-linecap="round" stroke-linejoin="miter"></path></svg>