<svg id="visual" viewBox="0 0 2000 300" width="2000" height="300" xmlns="http://www.w3.org/2000/svg" xmlns:xlink="http://www.w3.org/1999/xlink" version="1.1"><rect x="0" y="0" width="2000" height="300" fill="#0f172a"></rect><path d="M0 195L47.7 192.3C95.3 189.7 190.7 184.3 285.8 186.5C381 188.7 476 198.3 571.2 201.7C666.3 205 761.7 202 857 207.5C952.3 213 1047.7 227 1143 223C1238.3 219 1333.7 197 1428.8 197.5C1524 198 1619 221 1714.2 219.7C1809.3 218.3 1904.7 192.7 1952.3 179.8L2000 167L2000 0L1952.3 0C1904.7 0 1809.3 0 1714.2 0C1619 0 1524 0 1428.8 0C1333.7 0 1238.3 0 1143 0C1047.7 0 952.3 0 857 0C761.7 0 666.3 0 571.2 0C476 0 381 0 285.8 0C190.7 0 95.3 0 47.7 0L0 0Z" fill="#6198ff"></path><path d="M0 182L47.7 185.5C95.3 189 190.7 196 285.8 187.5C381 179 476 155 571.2 155.2C666.3 155.3 761.7 179.7 857 191.5C952.3 203.3 1047.7 202.7 1143 189.2C1238.3 175.7 1333.7 149.3 1428.8 142.2C1524 135 1619 147 1714.2 152.7C1809.3 158.3 1904.7 157.7 1952.3 157.3L2000 157L2000 0L1952.3 0C1904.7 0 1809.3 0 1714.2 0C1619 0 1524 0 1428.8 0C1333.7 0 1238.3 0 1143 0C1047.7 0 952.3 0 857 0C761.7 0 666.3 0 571.2 0C476 0 381 0 285.8 0C190.7 0 95.3 0 47.7 0L0 0Z" fill="#3c80ff"></path><path d="M0 101L47.7 105.7C95.3 110.3 190.7 119.7 285.8 125.3C381 131 476 133 571.2 128.5C666.3 124 761.7 113 857 112.5C952.3 112 1047.7 122 1143 122.5C1238.3 123 1333.7 114 1428.8 112.8C1524 111.7 1619 118.3 1714.2 115.8C1809.3 113.3 1904.7 101.7 1952.3 95.8L2000 90L2000 0L1952.3 0C1904.7 0 1809.3 0 1714.2 0C1619 0 1524 0 1428.8 0C1333.7 0 1238.3 0 1143 0C1047.7 0 952.3 0 857 0C761.7 0 666.3 0 571.2 0C476 0 381 0 285.8 0C190.7 0 95.3 0 47.7 0L0 0Z" fill="#0066ff"></path><path d="M0 113L47.7 113.3C95.3 113.7 190.7 114.3 285.8 106.3C381 98.3 476 81.7 571.2 78.2C666.3 74.7 761.7 84.3 857 84.2C952.3 84 1047.7 74 1143 69.7C1238.3 65.3 1333.7 66.7 1428.8 70.7C1524 74.7 1619 81.3 1714.2 87.2C1809.3 93 1904.7 98 1952.3 100.5L2000 103L2000 0L1952.3 0C1904.7 0 1809.3 0 1714.2 0C1619 0 1524 0 1428.8 0C1333.7 0 1238.3 0 1143 0C1047.7 0 952.3 0 857 0C761.7 0 666.3 0 571.2 0C476 0 381 0 285.8 0C190.7 0 95.3 0 47.7 0L0 0Z" fill="#0059dd"></path><path d="M0 50L47.7 53.3C95.3 56.7 190.7 63.3 285.8 62.3C381 61.3 476 52.7 571.2 49.8C666.3 47 761.7 50 857 51.5C952.3 53 1047.7 53 1143 54.5C1238.3 56 1333.7 59 1428.8 56.2C1524 53.3 1619 44.7 1714.2 39.7C1809.3 34.7 1904.7 33.3 1952.3 32.7L2000 32L2000 0L1952.3 0C1904.7 0 1809.3 0 1714.2 0C1619 0 1524 0 1428.8 0C1333.7 0 1238.3 0 1143 0C1047.7 0 952.3 0 857 0C761.7 0 666.3 0 571.2 0C476 0 381 0 285.8 0C190.7 0 95.3 0 47.7 0L0 0Z" fill="#004cbb"></path></svg>