<svg id="visual" viewBox="0 0 2000 300" width="2000" height="300" xmlns="http://www.w3.org/2000/svg" xmlns:xlink="http://www.w3.org/1999/xlink" version="1.1"><rect x="0" y="0" width="2000" height="300" fill="#0f172a"></rect><path d="M0 172L47.7 163.5C95.3 155 190.7 138 285.8 133.8C381 129.7 476 138.3 571.2 151.3C666.3 164.3 761.7 181.7 857 186.2C952.3 190.7 1047.7 182.3 1143 170C1238.3 157.7 1333.7 141.3 1428.8 131.3C1524 121.3 1619 117.7 1714.2 110.5C1809.3 103.3 1904.7 92.7 1952.3 87.3L2000 82L2000 0L1952.3 0C1904.7 0 1809.3 0 1714.2 0C1619 0 1524 0 1428.8 0C1333.7 0 1238.3 0 1143 0C1047.7 0 952.3 0 857 0C761.7 0 666.3 0 571.2 0C476 0 381 0 285.8 0C190.7 0 95.3 0 47.7 0L0 0Z" fill="#0066FF" stroke-linecap="round" stroke-linejoin="miter"></path></svg>