<svg id="visual" viewBox="0 0 2000 200" width="2000" height="200" xmlns="http://www.w3.org/2000/svg" xmlns:xlink="http://www.w3.org/1999/xlink" version="1.1"><rect x="0" y="0" width="2000" height="200" fill="#0f172a"></rect><path d="M0 84L47.7 94.2C95.3 104.3 190.7 124.7 285.8 119.5C381 114.3 476 83.7 571.2 75.3C666.3 67 761.7 81 857 90C952.3 99 1047.7 103 1143 101.3C1238.3 99.7 1333.7 92.3 1428.8 91.8C1524 91.3 1619 97.7 1714.2 94.7C1809.3 91.7 1904.7 79.3 1952.3 73.2L2000 67L2000 201L1952.3 201C1904.7 201 1809.3 201 1714.2 201C1619 201 1524 201 1428.8 201C1333.7 201 1238.3 201 1143 201C1047.7 201 952.3 201 857 201C761.7 201 666.3 201 571.2 201C476 201 381 201 285.8 201C190.7 201 95.3 201 47.7 201L0 201Z" fill="#0066FF" stroke-linecap="round" stroke-linejoin="miter"></path></svg>