<?xml version="1.0" encoding="utf-8"?>
<!-- Svg Vector Icons : http://www.onlinewebfonts.com/icon -->
<!DOCTYPE svg PUBLIC "-//W3C//DTD SVG 1.1//EN" "http://www.w3.org/Graphics/SVG/1.1/DTD/svg11.dtd">
<svg version="1.1" xmlns="http://www.w3.org/2000/svg" xmlns:xlink="http://www.w3.org/1999/xlink" x="0px" y="0px" viewBox="0 0 256 256" enable-background="new 0 0 256 256" xml:space="preserve">
<metadata> Svg Vector Icons : http://www.onlinewebfonts.com/icon </metadata>
<g><g><path fill="#000000" d="M128,10C62.8,10,10,62.8,10,128c0,65.2,52.8,118,118,118c65.2,0,118-52.8,118-118C246,62.8,193.2,10,128,10z M128,237.9c-60.7,0-109.9-49.2-109.9-109.9C18.1,67.3,67.3,18.1,128,18.1c60.7,0,109.9,49.2,109.9,109.9C237.9,188.7,188.7,237.9,128,237.9z M172.9,183.5c0-0.2,0-0.4,0-0.6c0-0.7,0.1-1.2,0.5-1.5c0.3-0.3,0.8-0.5,1.6-0.5c0.7,0,1.2,0.1,1.5,0.5c0.3,0.3,0.5,0.8,0.5,1.4c0,0.2,0,0.4,0,0.6l-1.3,12.3h-1.3L172.9,183.5z M176.3,197.8c0.4,0.4,0.6,0.8,0.6,1.4c0,0.6-0.2,1-0.6,1.4c-0.4,0.4-0.9,0.6-1.4,0.6c-0.6,0-1-0.2-1.4-0.6c-0.4-0.4-0.6-0.8-0.6-1.4c0-0.5,0.2-1,0.6-1.4c0.4-0.4,0.9-0.6,1.4-0.6C175.4,197.3,175.9,197.5,176.3,197.8z M186.4,172l-1.5-13c-0.8-4.6-3.7-10.6-8.2-10.6h-15.9l-0.2-0.2c-0.2-0.4-1.3-3.3-6.2-7.4c-3.1-2.6-6.1-3.9-8-4.6l1.9,0l-3.8-7.6c6.4-3.3,10.5-7.5,11.6-9.1c2-4.8,1.7-9.2,1.6-17.4c0-4.1-0.1-7.6-0.3-10.7c1.3-0.4,2.3-1.6,2.3-3.1v-4.7c0-1.7-1.4-3.1-3.1-3.2c-0.1-1.4-0.3-2.5-0.4-3.2c10.2-1.9,18.1-5.2,17.9-10.4c-0.2-6.1-14.7-6.3-14.7-6.3s-2.8-18.7-4.1-20.8c-1.3-2-8.2-1.6-8.2-1.6s-10.7-3.4-20.4-3.2h-2.2c-9.7-0.2-20.4,3.2-20.4,3.2s-6.9-0.5-8.2,1.6S92,60.6,92,60.6s-14.5,0.1-14.7,6.3c-0.2,5.6,9.1,9,20.6,10.9c-0.1,0.7-0.2,1.7-0.3,2.9c-0.3-0.1-0.7-0.2-1-0.2c-1.8,0-3.3,1.4-3.3,3.3v4.7c0,1.8,1.4,3.3,3.3,3.3c0.1,0,0.2,0,0.3-0.1c-0.1,3-0.2,6.5-0.3,10.5c-0.1,8.2-0.4,12.6,1.6,17.4c1.1,1.5,4.8,5.3,10.5,8.5l-1,0l-4.1,8.1l1.9,0c-2,0.6-4.9,1.9-8,4.6c-5.2,4.4-6.2,7.4-6.3,7.5v0.1h-16c-4.5,0-7.4,5.9-8.2,10.6l-4.1,35c-0.9,9.5,5.1,11.4,11.5,11.4h21h61.2h1c4.1,4.9,10.3,8.1,17.2,8.1c12.4,0,22.4-10,22.4-22.4C197.2,183,192.9,175.9,186.4,172z M89,67.5c0.4-1.7,9.8-1.2,9.8-1.2s1.2-19.6,2.4-20.8c1.2-1.2,6.2,0.1,6.2,0.1s9.8-3.6,17.3-3.8h2.2c7.5,0.2,17.3,3.8,17.3,3.8s5-1.3,6.2-0.1c1.2,1.2,2.4,20.8,2.4,20.8s9.4-0.5,9.8,1.2c1.1,4.9-20.5,5.6-35.7,5.6h-2.2C109.5,73.1,87.9,72.4,89,67.5z M103.5,116c-2-4.8-1.6-6.4-1.5-14.5c0.2-13.1,1-19.8,1.5-22.9c6.8,0.8,13.9,1.1,20.1,1.1c0.4,0,0.8,0,1.1,0h2.2c0.4,0,0.8,0,1.1,0c7,0,15.2-0.4,22.8-1.4c0.5,2.9,1.4,9.7,1.5,23.3c0.1,8.2,0.5,9.8-1.5,14.5c-1.9,2.7-8,9.2-23.7,9.4C111.5,125.2,105.4,118.7,103.5,116z M103,142.2c2.7-2.6,8.7-2.3,8.7-2.3l-3.5-3.7l3.4,0.1l2-6.1c3.6,1.4,7.7,2.4,12.3,2.6c0.4,0,0.8,0.1,1.2,0.1c0.1,0,0.1,0,0.2,0c0.1,0,0.1,0,0.2,0c0.4,0,0.8,0,1.2-0.1c3.7-0.1,7-0.8,10.1-1.8l1.7,5.3l3.4-0.1l-3.5,3.7c0,0,6-0.3,8.7,2.3c3.5,3.3,3.5,6.1,3.5,6.1l0,0l3.8,3.8c-2.5,4.6-6.5,11.6-11.7,20c-6.1,9.8-9,20.1-10.2,25h-15.4c-1.2-4.9-4-15.1-9.9-24.9c-5.6-9.2-9.7-16.8-12-21.2l2.7-2.7v0h0C99.5,148.3,99.4,145.6,103,142.2z M82.6,197.2c-6.4,0-12.4-1.1-11.6-10.1l5.3-23.6c0.8-4.6,0.8-7,5.3-7l9.8,0l2.6-2.6c2.3,4.5,6.5,12.4,12.4,21.6c5.5,8.7,7.1,17.3,7.6,21.7H95.3L82.6,197.2L82.6,197.2z M152.4,191.1c0,2.1,0.3,4.2,0.9,6.1h-14.1c0.5-4.4,2.1-13.1,7.8-21.8c5.5-8.5,9.5-15.7,12-20.3l1.5,1.5l9.8,0c4.5,0,4.5,2.4,5.3,7l1.2,5.3c-0.7,0-1.3-0.1-1.9-0.1C162.4,168.7,152.4,178.7,152.4,191.1z M188.9,192.8L188.9,192.8c-0.3,2.6-1.3,5-2.9,7l0,0c-0.5,0.7-1.1,1.3-1.7,1.8c0,0-0.1,0.1-0.1,0.1c-0.6,0.5-1.2,1-1.9,1.4c-0.1,0-0.2,0.1-0.3,0.1c-0.7,0.4-1.3,0.7-2,1c0,0-0.1,0-0.1,0c-1.6,0.6-3.3,0.9-5.1,0.9c-0.5,0-0.9,0-1.3-0.1c-0.3,0-0.6,0-0.9-0.1c-0.5-0.1-1.1-0.2-1.6-0.3c-0.2,0-0.4-0.1-0.6-0.2c-3.7-1.2-6.7-3.9-8.4-7.4H162c-0.9-1.9-1.4-3.9-1.4-6.1c0-7.9,6.4-14.2,14.2-14.2c1.3,0,2.6,0.2,3.9,0.6v0c4.4,1.2,7.8,4.5,9.4,8.6v0c0.6,1.6,1,3.3,1,5C189,191.6,188.9,192.2,188.9,192.8z"/></g></g>
</svg>